<mxfile host="65bd71144e" modified="2021-01-09T13:43:28.083Z" agent="5.0 (Windows NT 6.1; Win64; x64) AppleWebKit/537.36 (KHTML, like Gecko) Code/1.52.1 Chrome/83.0.4103.122 Electron/9.3.5 Safari/537.36" version="13.10.0" etag="6kCGM6q7tjuh0iRH1Pq6" type="embed">
    <diagram id="3ZSToLeCcEdlDt_kEz_0" name="cdm">
        <mxGraphModel dx="990" dy="482" grid="1" gridSize="10" guides="1" tooltips="1" connect="1" arrows="1" fold="1" page="1" pageScale="1" pageWidth="850" pageHeight="1100" math="0" shadow="0">
            <root>
                <mxCell id="0"/>
                <mxCell id="1" parent="0"/>
                <mxCell id="15" value="SanPham" style="swimlane;childLayout=stackLayout;horizontal=1;startSize=30;horizontalStack=0;rounded=1;fontSize=14;fontStyle=0;strokeWidth=2;resizeParent=0;resizeLast=1;shadow=0;dashed=0;align=center;" vertex="1" parent="1">
                    <mxGeometry x="360" y="200" width="160" height="160" as="geometry"/>
                </mxCell>
                <mxCell id="16" value="+MaSP-String(14)-P&#10;+TenSP-String(50)&#10;+GiaNhap-bigint&#10;+GiaBan-bigInt&#10;+MoTaS-String(100)&#10;+MoTaF-Text&#10;+hinh-String(255)&#10;+TrangThai-tinyInt" style="align=left;strokeColor=none;fillColor=none;spacingLeft=4;fontSize=12;verticalAlign=top;resizable=0;rotatable=0;part=1;" vertex="1" parent="15">
                    <mxGeometry y="30" width="160" height="130" as="geometry"/>
                </mxCell>
                <mxCell id="30" value="Nhom" style="swimlane;childLayout=stackLayout;horizontal=1;startSize=30;horizontalStack=0;rounded=1;fontSize=14;fontStyle=0;strokeWidth=2;resizeParent=0;resizeLast=1;shadow=0;dashed=0;align=center;" vertex="1" parent="1">
                    <mxGeometry x="620" y="30" width="160" height="100" as="geometry"/>
                </mxCell>
                <mxCell id="31" value="+idNhom-int-Incre-P&#10;+TenNhom-String(50)&#10;" style="align=left;strokeColor=none;fillColor=none;spacingLeft=4;fontSize=12;verticalAlign=top;resizable=0;rotatable=0;part=1;" vertex="1" parent="30">
                    <mxGeometry y="30" width="160" height="70" as="geometry"/>
                </mxCell>
                <mxCell id="32" style="edgeStyle=orthogonalEdgeStyle;rounded=0;orthogonalLoop=1;jettySize=auto;html=1;exitX=0.5;exitY=1;exitDx=0;exitDy=0;" edge="1" parent="30" source="31" target="31">
                    <mxGeometry relative="1" as="geometry"/>
                </mxCell>
                <mxCell id="34" value="SP_Nhom" style="swimlane;childLayout=stackLayout;horizontal=1;startSize=30;horizontalStack=0;rounded=1;fontSize=14;fontStyle=0;strokeWidth=2;resizeParent=0;resizeLast=1;shadow=0;dashed=0;align=center;" vertex="1" parent="1">
                    <mxGeometry x="425" y="30" width="140" height="85" as="geometry"/>
                </mxCell>
                <mxCell id="35" value="+IDAdmin-int-Incre&#10;+NgayTao-date&#10;+TrangThai-tinyInt&#10;" style="align=left;strokeColor=none;fillColor=none;spacingLeft=4;fontSize=12;verticalAlign=top;resizable=0;rotatable=0;part=1;" vertex="1" parent="34">
                    <mxGeometry y="30" width="140" height="55" as="geometry"/>
                </mxCell>
                <mxCell id="41" value="NguonGoc" style="swimlane;childLayout=stackLayout;horizontal=1;startSize=30;horizontalStack=0;rounded=1;fontSize=14;fontStyle=0;strokeWidth=2;resizeParent=0;resizeLast=1;shadow=0;dashed=0;align=center;" vertex="1" parent="1">
                    <mxGeometry x="580" y="250" width="160" height="120" as="geometry"/>
                </mxCell>
                <mxCell id="42" value="+MaNSX-String(6)-P&#10;+TenNSX-String(30)&#10;+DiaChi-String(100)&#10;+DienThoai-String(12)&#10;+GhiChu-text" style="align=left;strokeColor=none;fillColor=none;spacingLeft=4;fontSize=12;verticalAlign=top;resizable=0;rotatable=0;part=1;" vertex="1" parent="41">
                    <mxGeometry y="30" width="160" height="90" as="geometry"/>
                </mxCell>
                <mxCell id="65" style="edgeStyle=orthogonalEdgeStyle;rounded=0;orthogonalLoop=1;jettySize=auto;html=1;entryX=0.5;entryY=1;entryDx=0;entryDy=0;" edge="1" parent="1" source="44" target="56">
                    <mxGeometry relative="1" as="geometry"/>
                </mxCell>
                <mxCell id="44" value="NguoiDung" style="swimlane;childLayout=stackLayout;horizontal=1;startSize=30;horizontalStack=0;rounded=1;fontSize=14;fontStyle=0;strokeWidth=2;resizeParent=0;resizeLast=1;shadow=0;dashed=0;align=center;" vertex="1" parent="1">
                    <mxGeometry x="160" y="430" width="160" height="170" as="geometry"/>
                </mxCell>
                <mxCell id="45" value="+User-String(30)-P&#10;+Pass-String(60)&#10;+Quyen-tinyInt&#10;+HoTen-String(50)&#10;+DiaChi-String(100)&#10;+NgaySinh-Date&#10;+GioiTinh-tinyInt&#10;+SoDienThoai-String(12)&#10;+Email-String(50)" style="align=left;strokeColor=none;fillColor=none;spacingLeft=4;fontSize=12;verticalAlign=top;resizable=0;rotatable=0;part=1;" vertex="1" parent="44">
                    <mxGeometry y="30" width="160" height="140" as="geometry"/>
                </mxCell>
                <mxCell id="67" style="edgeStyle=orthogonalEdgeStyle;rounded=0;orthogonalLoop=1;jettySize=auto;html=1;entryX=1;entryY=0.25;entryDx=0;entryDy=0;" edge="1" parent="1" source="46" target="49">
                    <mxGeometry relative="1" as="geometry">
                        <Array as="points">
                            <mxPoint x="660" y="428"/>
                        </Array>
                    </mxGeometry>
                </mxCell>
                <mxCell id="46" value="DonHang" style="swimlane;childLayout=stackLayout;horizontal=1;startSize=30;horizontalStack=0;rounded=1;fontSize=14;fontStyle=0;strokeWidth=2;resizeParent=0;resizeLast=1;shadow=0;dashed=0;align=center;" vertex="1" parent="1">
                    <mxGeometry x="580" y="470" width="160" height="130" as="geometry"/>
                </mxCell>
                <mxCell id="47" value="+MaDonHang-String(10)-P&#10;+NgayDat-Date&#10;+NgayGiao-Date&#10;+NguoiGiao-String(30)&#10;+TrangThai-TinyInt&#10;+GiaDonHang-BigInt" style="align=left;strokeColor=none;fillColor=none;spacingLeft=4;fontSize=12;verticalAlign=top;resizable=0;rotatable=0;part=1;" vertex="1" parent="46">
                    <mxGeometry y="30" width="160" height="100" as="geometry"/>
                </mxCell>
                <mxCell id="68" style="edgeStyle=orthogonalEdgeStyle;rounded=0;orthogonalLoop=1;jettySize=auto;html=1;entryX=0.5;entryY=1;entryDx=0;entryDy=0;" edge="1" parent="1" source="48" target="16">
                    <mxGeometry relative="1" as="geometry"/>
                </mxCell>
                <mxCell id="48" value="DH_SP" style="swimlane;childLayout=stackLayout;horizontal=1;startSize=30;horizontalStack=0;rounded=1;fontSize=14;fontStyle=0;strokeWidth=2;resizeParent=0;resizeLast=1;shadow=0;dashed=0;align=center;" vertex="1" parent="1">
                    <mxGeometry x="360" y="390" width="160" height="60" as="geometry"/>
                </mxCell>
                <mxCell id="49" value="+SL-int" style="align=left;strokeColor=none;fillColor=none;spacingLeft=4;fontSize=12;verticalAlign=top;resizable=0;rotatable=0;part=1;" vertex="1" parent="48">
                    <mxGeometry y="30" width="160" height="30" as="geometry"/>
                </mxCell>
                <mxCell id="55" value="PhieuNhap" style="swimlane;childLayout=stackLayout;horizontal=1;startSize=30;horizontalStack=0;rounded=1;fontSize=14;fontStyle=0;strokeWidth=2;resizeParent=0;resizeLast=1;shadow=0;dashed=0;align=center;" vertex="1" parent="1">
                    <mxGeometry x="160" y="90" width="160" height="80" as="geometry"/>
                </mxCell>
                <mxCell id="56" value="+Id-Int-Incre-P&#10;+NgayNhap-Date" style="align=left;strokeColor=none;fillColor=none;spacingLeft=4;fontSize=12;verticalAlign=top;resizable=0;rotatable=0;part=1;" vertex="1" parent="55">
                    <mxGeometry y="30" width="160" height="50" as="geometry"/>
                </mxCell>
                <mxCell id="64" style="edgeStyle=orthogonalEdgeStyle;rounded=0;orthogonalLoop=1;jettySize=auto;html=1;entryX=0.5;entryY=0;entryDx=0;entryDy=0;" edge="1" parent="1" source="56" target="15">
                    <mxGeometry relative="1" as="geometry"/>
                </mxCell>
                <mxCell id="69" style="edgeStyle=orthogonalEdgeStyle;rounded=0;orthogonalLoop=1;jettySize=auto;html=1;" edge="1" parent="1" source="16" target="42">
                    <mxGeometry relative="1" as="geometry"/>
                </mxCell>
                <mxCell id="70" style="edgeStyle=orthogonalEdgeStyle;rounded=0;orthogonalLoop=1;jettySize=auto;html=1;entryX=0.698;entryY=0.006;entryDx=0;entryDy=0;entryPerimeter=0;" edge="1" parent="1" source="35" target="15">
                    <mxGeometry relative="1" as="geometry">
                        <mxPoint x="470" y="190" as="targetPoint"/>
                    </mxGeometry>
                </mxCell>
                <mxCell id="72" style="edgeStyle=orthogonalEdgeStyle;rounded=0;orthogonalLoop=1;jettySize=auto;html=1;entryX=0.005;entryY=0.391;entryDx=0;entryDy=0;entryPerimeter=0;" edge="1" parent="1" source="35" target="31">
                    <mxGeometry relative="1" as="geometry"/>
                </mxCell>
                <mxCell id="74" style="edgeStyle=orthogonalEdgeStyle;rounded=0;orthogonalLoop=1;jettySize=auto;html=1;entryX=0;entryY=0.25;entryDx=0;entryDy=0;" edge="1" parent="1" source="45" target="47">
                    <mxGeometry relative="1" as="geometry">
                        <Array as="points">
                            <mxPoint x="450" y="540"/>
                            <mxPoint x="450" y="525"/>
                        </Array>
                    </mxGeometry>
                </mxCell>
            </root>
        </mxGraphModel>
    </diagram>
</mxfile>